<?xml version="1.0" encoding="iso-8859-1"?>
<!-- Generator: Adobe Illustrator 18.0.0, SVG Export Plug-In . SVG Version: 6.00 Build 0)  -->
<!DOCTYPE svg PUBLIC "-//W3C//DTD SVG 1.1//EN" "http://www.w3.org/Graphics/SVG/1.1/DTD/svg11.dtd">
<svg version="1.1" id="Capa_1" xmlns="http://www.w3.org/2000/svg" xmlns:xlink="http://www.w3.org/1999/xlink" x="0px" y="0px"
	 viewBox="0 0 230.358 230.358" style="enable-background:new 0 0 230.358 230.358;" xml:space="preserve">
<path d="M222.858,29.61H7.5c-4.143,0-7.5,3.357-7.5,7.5v156.139c0,4.143,3.357,7.5,7.5,7.5h215.358c4.143,0,7.5-3.357,7.5-7.5V37.11
	C230.358,32.967,227.001,29.61,222.858,29.61z M15,56.286l49.309,55.69L15,172.241V56.286z M115.181,146.805L24.696,44.61h180.966
	L115.181,146.805z M74.382,123.353l35.184,39.737c1.424,1.607,3.468,2.528,5.615,2.528c2.147,0,4.191-0.921,5.615-2.528
	l35.183-39.737l51.053,62.396H23.328L74.382,123.353z M166.051,111.977l49.308-55.69v115.952L166.051,111.977z"/>
<g>
</g>
<g>
</g>
<g>
</g>
<g>
</g>
<g>
</g>
<g>
</g>
<g>
</g>
<g>
</g>
<g>
</g>
<g>
</g>
<g>
</g>
<g>
</g>
<g>
</g>
<g>
</g>
<g>
</g>
</svg>
